<mxfile host="65bd71144e">
    <diagram id="691b31df-7cfc-d80e-552c-7aa9f8c0b5f7" name="Page-1">
        <mxGraphModel dx="1100" dy="863" grid="1" gridSize="10" guides="1" tooltips="1" connect="1" arrows="1" fold="1" page="1" pageScale="1" pageWidth="826" pageHeight="1169" background="#ffffff" math="0" shadow="0">
            <root>
                <mxCell id="0"/>
                <mxCell id="1" parent="0"/>
                <mxCell id="84" style="edgeStyle=orthogonalEdgeStyle;html=1;exitX=1;exitY=0.5;exitDx=0;exitDy=0;entryX=0;entryY=0.5;entryDx=0;entryDy=0;strokeColor=#000000;curved=1;" parent="1" source="3" target="9" edge="1">
                    <mxGeometry relative="1" as="geometry"/>
                </mxCell>
                <mxCell id="94" style="edgeStyle=none;html=1;exitX=1;exitY=0.5;exitDx=0;exitDy=0;entryX=0;entryY=0.5;entryDx=0;entryDy=0;fontSize=18;fontColor=#000000;strokeColor=#000000;" parent="1" source="3" target="8" edge="1">
                    <mxGeometry relative="1" as="geometry"/>
                </mxCell>
                <mxCell id="3" value="" style="ellipse;whiteSpace=wrap;html=1;aspect=fixed;strokeWidth=4;fillColor=none;fontColor=#666666;align=center;strokeColor=#000000;" parent="1" vertex="1">
                    <mxGeometry x="115" y="113" width="40" height="40" as="geometry"/>
                </mxCell>
                <mxCell id="4" value="" style="ellipse;whiteSpace=wrap;html=1;aspect=fixed;strokeWidth=4;fillColor=none;fontColor=#666666;align=center;strokeColor=#000000;" parent="1" vertex="1">
                    <mxGeometry x="115" y="194" width="40" height="40" as="geometry"/>
                </mxCell>
                <mxCell id="5" value="" style="ellipse;whiteSpace=wrap;html=1;aspect=fixed;strokeWidth=4;fillColor=none;fontColor=#666666;align=center;strokeColor=#000000;" parent="1" vertex="1">
                    <mxGeometry x="115" y="272" width="40" height="40" as="geometry"/>
                </mxCell>
                <mxCell id="6" value="" style="ellipse;whiteSpace=wrap;html=1;aspect=fixed;strokeWidth=4;fillColor=none;fontColor=#666666;align=center;strokeColor=#000000;" parent="1" vertex="1">
                    <mxGeometry x="115" y="433" width="40" height="40" as="geometry"/>
                </mxCell>
                <mxCell id="7" value="" style="ellipse;whiteSpace=wrap;html=1;aspect=fixed;strokeWidth=4;fillColor=none;fontColor=#666666;align=center;strokeColor=#000000;" parent="1" vertex="1">
                    <mxGeometry x="115" y="352" width="40" height="40" as="geometry"/>
                </mxCell>
                <mxCell id="120" style="edgeStyle=orthogonalEdgeStyle;html=1;exitX=1;exitY=0.5;exitDx=0;exitDy=0;entryX=0;entryY=0.5;entryDx=0;entryDy=0;fontSize=18;fontColor=#000000;strokeColor=#000000;curved=1;" parent="1" source="8" target="38" edge="1">
                    <mxGeometry relative="1" as="geometry"/>
                </mxCell>
                <mxCell id="8" value="" style="ellipse;whiteSpace=wrap;html=1;aspect=fixed;strokeWidth=4;fillColor=none;fontColor=#666666;align=center;strokeColor=#000000;" parent="1" vertex="1">
                    <mxGeometry x="250" y="113" width="40" height="40" as="geometry"/>
                </mxCell>
                <mxCell id="100" style="edgeStyle=none;html=1;exitX=1;exitY=0.5;exitDx=0;exitDy=0;fontSize=18;fontColor=#000000;strokeColor=#000000;" parent="1" source="9" target="38" edge="1">
                    <mxGeometry relative="1" as="geometry"/>
                </mxCell>
                <mxCell id="103" style="edgeStyle=orthogonalEdgeStyle;html=1;exitX=1;exitY=0.5;exitDx=0;exitDy=0;entryX=0;entryY=0.5;entryDx=0;entryDy=0;fontSize=18;fontColor=#000000;strokeColor=#000000;curved=1;" parent="1" source="9" target="39" edge="1">
                    <mxGeometry relative="1" as="geometry"/>
                </mxCell>
                <mxCell id="9" value="" style="ellipse;whiteSpace=wrap;html=1;aspect=fixed;strokeWidth=4;fillColor=none;fontColor=#666666;align=center;strokeColor=#000000;" parent="1" vertex="1">
                    <mxGeometry x="250" y="194" width="40" height="40" as="geometry"/>
                </mxCell>
                <mxCell id="10" value="" style="ellipse;whiteSpace=wrap;html=1;aspect=fixed;strokeWidth=4;fillColor=none;fontColor=#666666;align=center;strokeColor=#000000;" parent="1" vertex="1">
                    <mxGeometry x="250" y="272" width="40" height="40" as="geometry"/>
                </mxCell>
                <mxCell id="11" value="" style="ellipse;whiteSpace=wrap;html=1;aspect=fixed;strokeWidth=4;fillColor=none;fontColor=#666666;align=center;strokeColor=#000000;" parent="1" vertex="1">
                    <mxGeometry x="250" y="433" width="40" height="40" as="geometry"/>
                </mxCell>
                <mxCell id="12" value="" style="ellipse;whiteSpace=wrap;html=1;aspect=fixed;strokeWidth=4;fillColor=none;fontColor=#666666;align=center;strokeColor=#000000;" parent="1" vertex="1">
                    <mxGeometry x="250" y="352" width="40" height="40" as="geometry"/>
                </mxCell>
                <mxCell id="37" value="" style="ellipse;whiteSpace=wrap;html=1;aspect=fixed;strokeWidth=4;fillColor=none;fontColor=#666666;align=center;strokeColor=#000000;" parent="1" vertex="1">
                    <mxGeometry x="385" y="113" width="40" height="40" as="geometry"/>
                </mxCell>
                <mxCell id="121" style="edgeStyle=orthogonalEdgeStyle;curved=1;html=1;exitX=1;exitY=0.5;exitDx=0;exitDy=0;entryX=0;entryY=0.5;entryDx=0;entryDy=0;fontSize=18;fontColor=#000000;strokeColor=#6F0000;fillColor=#a20025;strokeWidth=2;" parent="1" source="38" target="44" edge="1">
                    <mxGeometry relative="1" as="geometry"/>
                </mxCell>
                <mxCell id="38" value="" style="ellipse;whiteSpace=wrap;html=1;aspect=fixed;strokeWidth=4;fillColor=none;fontColor=#666666;align=center;strokeColor=#000000;" parent="1" vertex="1">
                    <mxGeometry x="385" y="194" width="40" height="40" as="geometry"/>
                </mxCell>
                <mxCell id="117" style="edgeStyle=none;html=1;exitX=1;exitY=0.5;exitDx=0;exitDy=0;entryX=0;entryY=0.5;entryDx=0;entryDy=0;fontSize=18;fontColor=#000000;strokeColor=#6F0000;fillColor=#a20025;strokeWidth=2;" parent="1" source="39" target="44" edge="1">
                    <mxGeometry relative="1" as="geometry"/>
                </mxCell>
                <mxCell id="122" style="edgeStyle=orthogonalEdgeStyle;curved=1;html=1;exitX=1;exitY=0.5;exitDx=0;exitDy=0;entryX=0;entryY=0.5;entryDx=0;entryDy=0;fontSize=18;fontColor=#000000;strokeColor=#000000;" parent="1" source="39" target="46" edge="1">
                    <mxGeometry relative="1" as="geometry"/>
                </mxCell>
                <mxCell id="39" value="" style="ellipse;whiteSpace=wrap;html=1;aspect=fixed;strokeWidth=4;fillColor=none;fontColor=#666666;align=center;strokeColor=#000000;" parent="1" vertex="1">
                    <mxGeometry x="385" y="272" width="40" height="40" as="geometry"/>
                </mxCell>
                <mxCell id="40" value="" style="ellipse;whiteSpace=wrap;html=1;aspect=fixed;strokeWidth=4;fillColor=none;fontColor=#666666;align=center;strokeColor=#000000;" parent="1" vertex="1">
                    <mxGeometry x="385" y="433" width="40" height="40" as="geometry"/>
                </mxCell>
                <mxCell id="41" value="" style="ellipse;whiteSpace=wrap;html=1;aspect=fixed;strokeWidth=4;fillColor=none;fontColor=#666666;align=center;strokeColor=#000000;" parent="1" vertex="1">
                    <mxGeometry x="385" y="352" width="40" height="40" as="geometry"/>
                </mxCell>
                <mxCell id="42" value="" style="ellipse;whiteSpace=wrap;html=1;aspect=fixed;strokeWidth=4;fillColor=none;fontColor=#666666;align=center;strokeColor=#000000;" parent="1" vertex="1">
                    <mxGeometry x="520" y="113" width="40" height="40" as="geometry"/>
                </mxCell>
                <mxCell id="43" value="" style="ellipse;whiteSpace=wrap;html=1;aspect=fixed;strokeWidth=4;fillColor=none;fontColor=#666666;align=center;strokeColor=#000000;" parent="1" vertex="1">
                    <mxGeometry x="520" y="194" width="40" height="40" as="geometry"/>
                </mxCell>
                <mxCell id="113" style="edgeStyle=orthogonalEdgeStyle;html=1;exitX=1;exitY=0.5;exitDx=0;exitDy=0;entryX=0;entryY=0.5;entryDx=0;entryDy=0;fontSize=18;fontColor=#000000;strokeColor=#001DBC;curved=1;fillColor=#0050ef;strokeWidth=2;" parent="1" source="44" target="51" edge="1">
                    <mxGeometry relative="1" as="geometry"/>
                </mxCell>
                <mxCell id="141" style="edgeStyle=none;html=1;exitX=1;exitY=0.5;exitDx=0;exitDy=0;entryX=0;entryY=0.5;entryDx=0;entryDy=0;strokeColor=#001DBC;fillColor=#0050ef;strokeWidth=2;" edge="1" parent="1" source="44" target="49">
                    <mxGeometry relative="1" as="geometry"/>
                </mxCell>
                <mxCell id="44" value="" style="ellipse;whiteSpace=wrap;html=1;aspect=fixed;strokeWidth=4;fillColor=none;fontColor=#666666;align=center;strokeColor=#000000;" parent="1" vertex="1">
                    <mxGeometry x="520" y="272" width="40" height="40" as="geometry"/>
                </mxCell>
                <mxCell id="45" value="" style="ellipse;whiteSpace=wrap;html=1;aspect=fixed;strokeWidth=4;fillColor=none;fontColor=#666666;align=center;strokeColor=#000000;" parent="1" vertex="1">
                    <mxGeometry x="520" y="433" width="40" height="40" as="geometry"/>
                </mxCell>
                <mxCell id="105" style="edgeStyle=orthogonalEdgeStyle;html=1;exitX=1;exitY=0.5;exitDx=0;exitDy=0;entryX=0;entryY=0.5;entryDx=0;entryDy=0;fontSize=18;fontColor=#000000;strokeColor=#000000;curved=1;" parent="1" source="46" target="50" edge="1">
                    <mxGeometry relative="1" as="geometry"/>
                </mxCell>
                <mxCell id="118" style="edgeStyle=none;html=1;exitX=1;exitY=0.5;exitDx=0;exitDy=0;entryX=0;entryY=0.5;entryDx=0;entryDy=0;fontSize=18;fontColor=#000000;strokeColor=#000000;" parent="1" source="46" target="51" edge="1">
                    <mxGeometry relative="1" as="geometry"/>
                </mxCell>
                <mxCell id="46" value="" style="ellipse;whiteSpace=wrap;html=1;aspect=fixed;strokeWidth=4;fillColor=none;fontColor=#666666;align=center;strokeColor=#000000;" parent="1" vertex="1">
                    <mxGeometry x="520" y="352" width="40" height="40" as="geometry"/>
                </mxCell>
                <mxCell id="47" value="" style="ellipse;whiteSpace=wrap;html=1;aspect=fixed;strokeWidth=4;fillColor=none;fontColor=#666666;align=center;strokeColor=#000000;" parent="1" vertex="1">
                    <mxGeometry x="655" y="113" width="40" height="40" as="geometry"/>
                </mxCell>
                <mxCell id="48" value="" style="ellipse;whiteSpace=wrap;html=1;aspect=fixed;strokeWidth=4;fillColor=none;fontColor=#666666;align=center;strokeColor=#000000;" parent="1" vertex="1">
                    <mxGeometry x="655" y="194" width="40" height="40" as="geometry"/>
                </mxCell>
                <mxCell id="49" value="" style="ellipse;whiteSpace=wrap;html=1;aspect=fixed;strokeWidth=4;fillColor=none;fontColor=#666666;align=center;strokeColor=#000000;" parent="1" vertex="1">
                    <mxGeometry x="655" y="272" width="40" height="40" as="geometry"/>
                </mxCell>
                <mxCell id="106" style="edgeStyle=none;html=1;exitX=1;exitY=0.5;exitDx=0;exitDy=0;entryX=0;entryY=0.5;entryDx=0;entryDy=0;fontSize=18;fontColor=#000000;strokeColor=#000000;" parent="1" source="50" target="64" edge="1">
                    <mxGeometry relative="1" as="geometry"/>
                </mxCell>
                <mxCell id="132" style="edgeStyle=orthogonalEdgeStyle;curved=1;html=1;exitX=1;exitY=0.5;exitDx=0;exitDy=0;entryX=0;entryY=0.5;entryDx=0;entryDy=0;fontSize=18;fontColor=#000000;strokeColor=#000000;" parent="1" source="50" target="130" edge="1">
                    <mxGeometry relative="1" as="geometry"/>
                </mxCell>
                <mxCell id="50" value="" style="ellipse;whiteSpace=wrap;html=1;aspect=fixed;strokeWidth=4;fillColor=none;fontColor=#666666;align=center;strokeColor=#000000;" parent="1" vertex="1">
                    <mxGeometry x="655" y="433" width="40" height="40" as="geometry"/>
                </mxCell>
                <mxCell id="114" style="edgeStyle=orthogonalEdgeStyle;html=1;exitX=1;exitY=0.5;exitDx=0;exitDy=0;entryX=0;entryY=0.5;entryDx=0;entryDy=0;fontSize=18;fontColor=#000000;strokeColor=#000000;curved=1;" parent="1" source="51" target="64" edge="1">
                    <mxGeometry relative="1" as="geometry"/>
                </mxCell>
                <mxCell id="51" value="" style="ellipse;whiteSpace=wrap;html=1;aspect=fixed;strokeWidth=4;fillColor=none;fontColor=#666666;align=center;strokeColor=#000000;" parent="1" vertex="1">
                    <mxGeometry x="655" y="352" width="40" height="40" as="geometry"/>
                </mxCell>
                <mxCell id="61" value="" style="ellipse;whiteSpace=wrap;html=1;aspect=fixed;strokeWidth=4;fillColor=none;fontColor=#666666;align=center;strokeColor=#000000;" parent="1" vertex="1">
                    <mxGeometry x="785" y="113" width="40" height="40" as="geometry"/>
                </mxCell>
                <mxCell id="62" value="" style="ellipse;whiteSpace=wrap;html=1;aspect=fixed;strokeWidth=4;fillColor=none;fontColor=#666666;align=center;strokeColor=#000000;" parent="1" vertex="1">
                    <mxGeometry x="785" y="194" width="40" height="40" as="geometry"/>
                </mxCell>
                <mxCell id="63" value="" style="ellipse;whiteSpace=wrap;html=1;aspect=fixed;strokeWidth=4;fillColor=none;fontColor=#666666;align=center;strokeColor=#000000;" parent="1" vertex="1">
                    <mxGeometry x="785" y="272" width="40" height="40" as="geometry"/>
                </mxCell>
                <mxCell id="133" style="edgeStyle=orthogonalEdgeStyle;curved=1;html=1;exitX=1;exitY=0.5;exitDx=0;exitDy=0;entryX=0;entryY=0.5;entryDx=0;entryDy=0;fontSize=18;fontColor=#000000;strokeColor=#000000;" parent="1" source="64" target="131" edge="1">
                    <mxGeometry relative="1" as="geometry"/>
                </mxCell>
                <mxCell id="64" value="" style="ellipse;whiteSpace=wrap;html=1;aspect=fixed;strokeWidth=4;fillColor=none;fontColor=#666666;align=center;strokeColor=#000000;" parent="1" vertex="1">
                    <mxGeometry x="785" y="433" width="40" height="40" as="geometry"/>
                </mxCell>
                <mxCell id="65" value="" style="ellipse;whiteSpace=wrap;html=1;aspect=fixed;strokeWidth=4;fillColor=none;fontColor=#666666;align=center;strokeColor=#000000;" parent="1" vertex="1">
                    <mxGeometry x="785" y="352" width="40" height="40" as="geometry"/>
                </mxCell>
                <mxCell id="68" value="" style="ellipse;whiteSpace=wrap;html=1;aspect=fixed;strokeWidth=4;fillColor=none;fontColor=#666666;align=center;strokeColor=#000000;" parent="1" vertex="1">
                    <mxGeometry x="905" y="113" width="40" height="40" as="geometry"/>
                </mxCell>
                <mxCell id="69" value="" style="ellipse;whiteSpace=wrap;html=1;aspect=fixed;strokeWidth=4;fillColor=none;fontColor=#666666;align=center;strokeColor=#000000;" parent="1" vertex="1">
                    <mxGeometry x="905" y="194" width="40" height="40" as="geometry"/>
                </mxCell>
                <mxCell id="70" value="" style="ellipse;whiteSpace=wrap;html=1;aspect=fixed;strokeWidth=4;fillColor=none;fontColor=#666666;align=center;strokeColor=#000000;" parent="1" vertex="1">
                    <mxGeometry x="905" y="272" width="40" height="40" as="geometry"/>
                </mxCell>
                <mxCell id="71" value="" style="ellipse;whiteSpace=wrap;html=1;aspect=fixed;strokeWidth=4;fillColor=none;fontColor=#666666;align=center;strokeColor=#000000;" parent="1" vertex="1">
                    <mxGeometry x="905" y="433" width="40" height="40" as="geometry"/>
                </mxCell>
                <mxCell id="72" value="" style="ellipse;whiteSpace=wrap;html=1;aspect=fixed;strokeWidth=4;fillColor=none;fontColor=#666666;align=center;strokeColor=#000000;" parent="1" vertex="1">
                    <mxGeometry x="905" y="352" width="40" height="40" as="geometry"/>
                </mxCell>
                <mxCell id="87" value="&lt;font style=&quot;font-size: 18px&quot;&gt;A&lt;/font&gt;" style="text;html=1;resizable=0;autosize=1;align=center;verticalAlign=middle;points=[];fillColor=none;strokeColor=none;rounded=0;fontColor=#000000;" parent="1" vertex="1">
                    <mxGeometry x="45" y="123" width="30" height="20" as="geometry"/>
                </mxCell>
                <mxCell id="89" value="&lt;font style=&quot;font-size: 18px&quot;&gt;G&lt;/font&gt;" style="text;html=1;resizable=0;autosize=1;align=center;verticalAlign=middle;points=[];fillColor=none;strokeColor=none;rounded=0;fontColor=#000000;" parent="1" vertex="1">
                    <mxGeometry x="45" y="282" width="30" height="20" as="geometry"/>
                </mxCell>
                <mxCell id="90" value="&lt;font style=&quot;font-size: 18px&quot;&gt;T&lt;/font&gt;" style="text;html=1;resizable=0;autosize=1;align=center;verticalAlign=middle;points=[];fillColor=none;strokeColor=none;rounded=0;fontColor=#000000;" parent="1" vertex="1">
                    <mxGeometry x="45" y="204" width="30" height="20" as="geometry"/>
                </mxCell>
                <mxCell id="91" value="&lt;font style=&quot;font-size: 18px&quot;&gt;C&lt;/font&gt;" style="text;html=1;resizable=0;autosize=1;align=center;verticalAlign=middle;points=[];fillColor=none;strokeColor=none;rounded=0;fontColor=#000000;" parent="1" vertex="1">
                    <mxGeometry x="45" y="533" width="30" height="20" as="geometry"/>
                </mxCell>
                <mxCell id="92" value="&lt;font style=&quot;font-size: 18px&quot;&gt;A&lt;/font&gt;" style="text;html=1;resizable=0;autosize=1;align=center;verticalAlign=middle;points=[];fillColor=none;strokeColor=none;rounded=0;fontColor=#000000;" parent="1" vertex="1">
                    <mxGeometry x="45" y="443" width="30" height="20" as="geometry"/>
                </mxCell>
                <mxCell id="93" value="&lt;font style=&quot;font-size: 18px&quot;&gt;G&lt;/font&gt;" style="text;html=1;resizable=0;autosize=1;align=center;verticalAlign=middle;points=[];fillColor=none;strokeColor=none;rounded=0;fontColor=#000000;" parent="1" vertex="1">
                    <mxGeometry x="45" y="362" width="30" height="20" as="geometry"/>
                </mxCell>
                <mxCell id="123" value="" style="ellipse;whiteSpace=wrap;html=1;aspect=fixed;strokeWidth=4;fillColor=none;fontColor=#666666;align=center;strokeColor=#000000;" parent="1" vertex="1">
                    <mxGeometry x="115" y="523" width="40" height="40" as="geometry"/>
                </mxCell>
                <mxCell id="124" value="" style="ellipse;whiteSpace=wrap;html=1;aspect=fixed;strokeWidth=4;fillColor=none;fontColor=#666666;align=center;strokeColor=#000000;" parent="1" vertex="1">
                    <mxGeometry x="250" y="523" width="40" height="40" as="geometry"/>
                </mxCell>
                <mxCell id="125" value="" style="ellipse;whiteSpace=wrap;html=1;aspect=fixed;strokeWidth=4;fillColor=none;fontColor=#666666;align=center;strokeColor=#000000;" parent="1" vertex="1">
                    <mxGeometry x="385" y="523" width="40" height="40" as="geometry"/>
                </mxCell>
                <mxCell id="126" value="" style="ellipse;whiteSpace=wrap;html=1;aspect=fixed;strokeWidth=4;fillColor=none;fontColor=#666666;align=center;strokeColor=#000000;" parent="1" vertex="1">
                    <mxGeometry x="520" y="523" width="40" height="40" as="geometry"/>
                </mxCell>
                <mxCell id="128" value="" style="ellipse;whiteSpace=wrap;html=1;aspect=fixed;strokeWidth=4;fillColor=none;fontColor=#666666;align=center;strokeColor=#000000;" parent="1" vertex="1">
                    <mxGeometry x="655" y="523" width="40" height="40" as="geometry"/>
                </mxCell>
                <mxCell id="129" style="edgeStyle=none;html=1;exitX=1;exitY=0.5;exitDx=0;exitDy=0;fontSize=18;fontColor=#000000;strokeColor=#000000;" parent="1" source="130" edge="1">
                    <mxGeometry relative="1" as="geometry">
                        <mxPoint x="900" y="543" as="targetPoint"/>
                    </mxGeometry>
                </mxCell>
                <mxCell id="130" value="" style="ellipse;whiteSpace=wrap;html=1;aspect=fixed;strokeWidth=4;fillColor=none;fontColor=#666666;align=center;strokeColor=#000000;" parent="1" vertex="1">
                    <mxGeometry x="785" y="523" width="40" height="40" as="geometry"/>
                </mxCell>
                <mxCell id="131" value="" style="ellipse;whiteSpace=wrap;html=1;aspect=fixed;strokeWidth=4;fillColor=none;fontColor=#666666;align=center;strokeColor=#000000;" parent="1" vertex="1">
                    <mxGeometry x="905" y="523" width="40" height="40" as="geometry"/>
                </mxCell>
                <mxCell id="134" value="&lt;font style=&quot;font-size: 18px&quot;&gt;x&lt;sub&gt;1&lt;/sub&gt;&lt;/font&gt;" style="text;html=1;resizable=0;autosize=1;align=center;verticalAlign=middle;points=[];fillColor=none;strokeColor=none;rounded=0;fontColor=#000000;" parent="1" vertex="1">
                    <mxGeometry x="120" y="50" width="30" height="20" as="geometry"/>
                </mxCell>
                <mxCell id="135" value="&lt;span style=&quot;font-size: 18px&quot;&gt;x&lt;/span&gt;&lt;span style=&quot;font-size: 10px&quot;&gt;2&lt;/span&gt;" style="text;html=1;resizable=0;autosize=1;align=center;verticalAlign=middle;points=[];fillColor=none;strokeColor=none;rounded=0;fontColor=#000000;" parent="1" vertex="1">
                    <mxGeometry x="255" y="50" width="30" height="20" as="geometry"/>
                </mxCell>
                <mxCell id="136" value="&lt;span style=&quot;font-size: 18px&quot;&gt;x&lt;/span&gt;&lt;span style=&quot;font-size: 10px&quot;&gt;3&lt;/span&gt;" style="text;html=1;resizable=0;autosize=1;align=center;verticalAlign=middle;points=[];fillColor=none;strokeColor=none;rounded=0;fontColor=#000000;" parent="1" vertex="1">
                    <mxGeometry x="390" y="50" width="30" height="20" as="geometry"/>
                </mxCell>
                <mxCell id="137" value="&lt;span style=&quot;font-size: 18px&quot;&gt;x&lt;/span&gt;&lt;span style=&quot;font-size: 10px&quot;&gt;4&lt;/span&gt;" style="text;html=1;resizable=0;autosize=1;align=center;verticalAlign=middle;points=[];fillColor=none;strokeColor=none;rounded=0;fontColor=#000000;" parent="1" vertex="1">
                    <mxGeometry x="525" y="50" width="30" height="20" as="geometry"/>
                </mxCell>
                <mxCell id="138" value="&lt;span style=&quot;font-size: 18px&quot;&gt;x&lt;/span&gt;&lt;span style=&quot;font-size: 10px&quot;&gt;5&lt;/span&gt;" style="text;html=1;resizable=0;autosize=1;align=center;verticalAlign=middle;points=[];fillColor=none;strokeColor=none;rounded=0;fontColor=#000000;" parent="1" vertex="1">
                    <mxGeometry x="660" y="50" width="30" height="20" as="geometry"/>
                </mxCell>
                <mxCell id="139" value="&lt;span style=&quot;font-size: 18px&quot;&gt;x&lt;/span&gt;&lt;span style=&quot;font-size: 10px&quot;&gt;6&lt;/span&gt;" style="text;html=1;resizable=0;autosize=1;align=center;verticalAlign=middle;points=[];fillColor=none;strokeColor=none;rounded=0;fontColor=#000000;" parent="1" vertex="1">
                    <mxGeometry x="795" y="50" width="30" height="20" as="geometry"/>
                </mxCell>
                <mxCell id="140" value="&lt;span style=&quot;font-size: 18px&quot;&gt;x&lt;/span&gt;&lt;span style=&quot;font-size: 10px&quot;&gt;7&lt;/span&gt;" style="text;html=1;resizable=0;autosize=1;align=center;verticalAlign=middle;points=[];fillColor=none;strokeColor=none;rounded=0;fontColor=#000000;" parent="1" vertex="1">
                    <mxGeometry x="910" y="50" width="30" height="20" as="geometry"/>
                </mxCell>
            </root>
        </mxGraphModel>
    </diagram>
</mxfile>